<?xml version="1.0" encoding="utf-8"?>
<!-- Generator: Adobe Illustrator 18.0.0, SVG Export Plug-In . SVG Version: 6.00 Build 0)  -->
<!DOCTYPE svg PUBLIC "-//W3C//DTD SVG 1.1//EN" "http://www.w3.org/Graphics/SVG/1.1/DTD/svg11.dtd">
<svg version="1.1" id="Layer_1" xmlns="http://www.w3.org/2000/svg" xmlns:xlink="http://www.w3.org/1999/xlink" x="0px" y="0px"
	 viewBox="0 0 15 15" enable-background="new 0 0 15 15" xml:space="preserve">
<g>
	<path fill="#7391C8" d="M7.8,10.1c0,0.2,0,0.3-0.1,0.5L5.2,7.8l2.4-2.1C7.7,5.8,7.8,6,7.8,6.2L7.8,10.1L7.8,10.1z M3.9,8.3l3.4-3
		C7.2,5.3,7,5.2,6.8,5.2H1c-0.2,0-0.3,0-0.5,0.1L3.9,8.3z M4.8,8.1L4.1,8.8c0,0-0.1,0.1-0.2,0.1c-0.1,0-0.1,0-0.2-0.1L3,8.1
		l-2.5,2.8C0.6,11,0.8,11.1,1,11.1h5.9c0.2,0,0.4-0.1,0.5-0.1L4.8,8.1z M0.2,5.7C0.1,5.8,0,6,0,6.2v3.9c0,0.2,0,0.3,0.1,0.5l2.5-2.8
		L0.2,5.7z"/>
</g>
</svg>
