<?xml version="1.0" encoding="utf-8"?>
<!-- Generator: Adobe Illustrator 18.0.0, SVG Export Plug-In . SVG Version: 6.00 Build 0)  -->
<!DOCTYPE svg PUBLIC "-//W3C//DTD SVG 1.1//EN" "http://www.w3.org/Graphics/SVG/1.1/DTD/svg11.dtd">
<svg version="1.1" id="Layer_1" xmlns="http://www.w3.org/2000/svg" xmlns:xlink="http://www.w3.org/1999/xlink" x="0px" y="0px"
	 viewBox="0 0 320 480" enable-background="new 0 0 320 480" xml:space="preserve">
<path fill="#7391C8" d="M218.4,200.1c-6.3-16.1-18.3-28.4-33.8-34.7c-6.7-2.7-13.5-4.1-20.2-4.1c-22.3,0-37.8,14.9-43.9,21.9
	c-6-7-21.6-22-43.8-22c-6.7,0-13.5,1.4-20.2,4.1C40.9,171.6,28.9,184,22.6,200c-6.7,17.2-6.1,36.6,1.8,53.4
	c11.2,23.8,36.5,60.8,94,102.2l2,1.4l2-1.4c57.8-41.5,83.1-78.4,94.2-102.1C224.5,236.7,225.1,217.3,218.4,200.1z"/>
</svg>
