<?xml version="1.0" encoding="utf-8"?>
<!-- Generator: Adobe Illustrator 18.0.0, SVG Export Plug-In . SVG Version: 6.00 Build 0)  -->
<!DOCTYPE svg PUBLIC "-//W3C//DTD SVG 1.1//EN" "http://www.w3.org/Graphics/SVG/1.1/DTD/svg11.dtd">
<svg version="1.1" id="Layer_1" xmlns="http://www.w3.org/2000/svg" xmlns:xlink="http://www.w3.org/1999/xlink" x="0px" y="0px"
	 viewBox="0 0 500 500" enable-background="new 0 0 500 500" xml:space="preserve">
<g>
	<path fill="#7391C8" d="M126.3,143.3c-62.1,0-112.5,50.4-112.5,112.5s50.4,112.5,112.5,112.5S238.9,318,238.9,255.8
		S188.5,143.3,126.3,143.3z M149.8,317.7c-5.8,2.3-10.4,4-13.9,5.2c-3.4,1.2-7.5,1.8-12,1.8c-7,0-12.5-1.7-16.4-5.1s-5.8-7.8-5.8-13
		c0-2,0.1-4.1,0.4-6.3c0.3-2.1,0.8-4.5,1.4-7.2l7.2-25.6c0.6-2.5,1.2-4.8,1.6-7c0.4-2.2,0.6-4.2,0.6-6c0-3.3-0.7-5.5-2-6.8
		c-1.4-1.3-3.9-1.9-7.7-1.9c-1.9,0-3.8,0.3-5.8,0.9c-2,0.6-3.6,1.1-5,1.7l1.9-7.9c4.7-1.9,9.3-3.6,13.6-5c4.3-1.4,8.4-2.1,12.3-2.1
		c7,0,12.3,1.7,16.1,5c3.8,3.4,5.7,7.7,5.7,13.1c0,1.1-0.1,3.1-0.4,5.9c-0.3,2.8-0.7,5.4-1.4,7.7l-7.2,25.5c-0.6,2-1.1,4.4-1.6,7
		c-0.5,2.6-0.7,4.6-0.7,6c0,3.4,0.8,5.7,2.3,6.9c1.5,1.2,4.1,1.8,7.9,1.8c1.8,0,3.7-0.3,6-0.9c2.2-0.6,3.8-1.2,4.8-1.6L149.8,317.7z
		 M148.5,214.1c-3.4,3.1-7.4,4.7-12.1,4.7c-4.7,0-8.8-1.6-12.2-4.7c-3.4-3.1-5.1-6.9-5.1-11.4c0-4.4,1.7-8.2,5.1-11.4
		c3.4-3.2,7.5-4.7,12.2-4.7c4.7,0,8.8,1.6,12.1,4.7c3.4,3.2,5,7,5,11.4C153.5,207.2,151.9,211,148.5,214.1z"/>
</g>
</svg>
