<?xml version="1.0" encoding="utf-8"?>
<!-- Generator: Adobe Illustrator 18.0.0, SVG Export Plug-In . SVG Version: 6.00 Build 0)  -->
<!DOCTYPE svg PUBLIC "-//W3C//DTD SVG 1.1//EN" "http://www.w3.org/Graphics/SVG/1.1/DTD/svg11.dtd">
<svg version="1.1" id="Layer_1" xmlns="http://www.w3.org/2000/svg" xmlns:xlink="http://www.w3.org/1999/xlink" x="0px" y="0px"
	 viewBox="0 0 320 480" enable-background="new 0 0 320 480" xml:space="preserve">
<g>
	<g id="Layer_5_59_">
		<g>
			<path fill="#7391C8" d="M130.2,289c-4,2.5-9.2,3.8-14.6,3.8s-10.5-1.4-14.6-3.8l-66-40.5c0,0-6-3.6-6,4.6c0,9.4,0,37.6,0,37.6
				c0,0.4,0,2.3,0,2.8c0,21.3,38.7,44.2,86.5,44.2s86.5-22.9,86.5-44.2c0-0.6,0-2.5,0-2.8c0,0,0-29.9,0-39.8c0-6.6-4.2-3.4-4.2-3.4
				L130.2,289z"/>
			<path fill="#7391C8" d="M225.4,216.4c5.1-3.1,5.1-8.2,0-11.3l-100.5-50.2c-5.1-3.1-13.4-3.1-18.4,0L6,205.1
				c-5.1,3.1-5.1,8.2,0,11.3L106.4,278c5.1,3.1,13.4,3.1,18.4,0"/>
			<path fill="#7391C8" d="M221.2,307.7c0-17,0-68.1,0-68.1s0-3.2-1.9-2.2c-1.5,0.9-5.3,3-6.6,4.1c-1.5,1.3-1.2,4.3-1.2,4.3
				s0,46.4,0,61.8c0,0.9-0.8,1.3-1.1,1.5c-3.5,2-5.8,5.8-5.8,10.1c0,6.5,5.3,11.8,11.8,11.8c6.5,0,11.8-5.3,11.8-11.8
				c0-4.3-2.4-8.1-5.8-10.2C221.9,309,221.2,308.6,221.2,307.7z"/>
		</g>
	</g>
</g>
</svg>
