<?xml version="1.0" encoding="utf-8"?>
<!-- Generator: Adobe Illustrator 18.0.0, SVG Export Plug-In . SVG Version: 6.00 Build 0)  -->
<!DOCTYPE svg PUBLIC "-//W3C//DTD SVG 1.1//EN" "http://www.w3.org/Graphics/SVG/1.1/DTD/svg11.dtd">
<svg version="1.1" id="Layer_1" xmlns="http://www.w3.org/2000/svg" xmlns:xlink="http://www.w3.org/1999/xlink" x="0px" y="0px"
	 viewBox="0 0 320 480" enable-background="new 0 0 320 480" xml:space="preserve">
<g>
	<path fill="#7391C8" d="M120.4,255.8c26.7,0,48.4-24,48.4-53.7c0-29.7-7.1-53.7-48.4-53.7S72,172.4,72,202.1
		C72,231.7,93.6,255.8,120.4,255.8z"/>
	<path fill="#7391C8" d="M29,337.8C29,336,28.9,337.3,29,337.8L29,337.8z"/>
	<path fill="#7391C8" d="M211.8,339.2C211.8,338.7,211.8,335.7,211.8,339.2L211.8,339.2z"/>
	<path fill="#7391C8" d="M211.7,335.6c-0.9-51.7-8.3-66.4-64.8-75.7c0,0-8,9.3-26.5,9.3s-26.5-9.3-26.5-9.3
		c-55.9,9.2-63.7,23.7-64.8,74c-0.1,4.1-0.1,4.3-0.1,3.8c0,0.9,0,2.5,0,5.4c0,0,13.5,24.8,91.4,24.8c77.9,0,91.4-24.8,91.4-24.8
		c0-1.9,0-3.1,0-4C211.8,339.5,211.7,338.9,211.7,335.6z"/>
</g>
</svg>
