<?xml version="1.0" encoding="utf-8"?>
<!-- Generator: Adobe Illustrator 18.0.0, SVG Export Plug-In . SVG Version: 6.00 Build 0)  -->
<!DOCTYPE svg PUBLIC "-//W3C//DTD SVG 1.1//EN" "http://www.w3.org/Graphics/SVG/1.1/DTD/svg11.dtd">
<svg version="1.1" id="Layer_1" xmlns="http://www.w3.org/2000/svg" xmlns:xlink="http://www.w3.org/1999/xlink" x="0px" y="0px"
	 viewBox="0 0 200 100" enable-background="new 0 0 200 100" xml:space="preserve">
<g>
	<path fill="#FFFFFF" d="M28.2,77.6L15.7,88.3L5.5,97l3.3-14.4l3.1-13.3l1.5,4.8c-4.4-4.2-7.9-9.4-10-15c-1.1-2.8-1.9-5.7-2.3-8.7
		c-0.4-3-0.6-6-0.3-8.9l0.2-2l0.4-2.3c0.2-0.8,0.2-1.6,0.5-2.3l0.6-2.1l0.3-1.1c0.1-0.4,0.3-0.7,0.4-1L4,28.6c0.2-0.7,0.6-1.3,0.9-2
		l1-2c0.8-1.2,1.6-2.5,2.4-3.7l1.4-1.7l0.7-0.9c0.2-0.3,0.5-0.5,0.7-0.8c1-1.1,2-2.1,3.1-3.1l1.7-1.4l1.8-1.3c2.4-1.7,5-3,7.6-4.2
		c1.3-0.6,2.7-1,4.1-1.4c1.4-0.3,2.8-0.7,4.2-0.9L35.8,5c0.7-0.1,1.4-0.2,2.1-0.2l2.1,0l0.5,0l0.3,0l0.1,0l0.1,0l0.2,0l1,0.1
		c0.7,0.1,1.3,0.1,2,0.2l2.2,0.3c0.7,0.1,1.4,0.3,2.1,0.4c0.7,0.1,1.4,0.3,2.1,0.5C53.3,7,56,8.1,58.4,9.5c2.5,1.4,4.8,3,6.9,4.8
		c2.1,1.9,4,3.9,5.6,6.2c1.6,2.3,3,4.7,4.1,7.2l-2.1,1c-1.2-2.3-2.6-4.5-4.2-6.5c-1.6-2-3.5-3.8-5.5-5.4c-2-1.6-4.2-2.9-6.5-4
		c-2.3-1.1-4.7-1.9-7.2-2.5c-0.6-0.2-1.2-0.3-1.9-0.4c-0.6-0.1-1.3-0.2-1.9-0.3L44,9.6c-0.6-0.1-1.3,0-2,0l-1,0l0,0
		c-0.1,0,0.1,0,0.1,0l-0.1,0l-0.1,0l-0.2,0l-0.5,0l-1.9,0.2c-0.6,0-1.2,0.2-1.9,0.3l-1.8,0.3c-1.2,0.3-2.4,0.7-3.6,1
		c-1.1,0.5-2.3,0.9-3.4,1.4c-2.2,1.1-4.3,2.4-6.2,3.9l-1.4,1.1l-1.3,1.3c-0.9,0.8-1.7,1.8-2.5,2.7c-0.2,0.2-0.4,0.5-0.6,0.7L15,23.3
		l-1,1.5c-0.6,1-1.2,2.1-1.8,3.2l-0.7,1.7c-0.2,0.6-0.5,1.1-0.7,1.7L10.2,33c-0.1,0.3-0.2,0.6-0.3,0.9l-0.2,0.9l-0.4,1.8
		c-0.2,0.6-0.1,1.1-0.2,1.7l-0.2,1.7l0,2c-0.1,2.4,0.2,4.8,0.6,7.1c0.5,2.3,1.2,4.6,2.2,6.7c1.9,4.3,4.9,8.1,8.4,11.1l2.2,1.9
		l-0.7,3l-3.1,13.3l-6.9-5.7L28,77.2L28.2,77.6z"/>
</g>
<g>
	<g>
		<path fill="#FFFFFF" d="M76.7,69.2c0-0.6,0-1.3,0.1-2.1c0.1-0.8,0.2-1.6,0.4-2.6l4.9-23.1h10.4l-5.2,24.5
			c-0.1,0.4-0.2,0.8-0.2,1.2c0,0.4-0.1,0.7-0.1,1.1c0,1,0.2,1.6,0.7,2.1c0.5,0.4,1.2,0.6,2.3,0.6c1.3,0,2.6-0.6,3.8-1.8
			c1.2-1.2,2.1-2.7,2.7-4.6h3c-1.5,4.4-3.6,7.7-6.2,9.9c-2.6,2.3-5.6,3.4-8.9,3.4c-2.4,0-4.3-0.8-5.7-2.3S76.7,72,76.7,69.2z
			 M95.1,31.8c0,1.6-0.6,2.9-1.7,4c-1.1,1.1-2.5,1.7-4.1,1.7s-2.9-0.6-4-1.7c-1.1-1.1-1.7-2.4-1.7-4s0.6-2.9,1.7-4.1
			c1.1-1.1,2.4-1.7,4-1.7s2.9,0.6,4.1,1.7C94.5,28.9,95.1,30.3,95.1,31.8z"/>
		<path fill="#FFFFFF" d="M104.2,77.4H93.8l7.6-36h10.4l-0.9,4.5c2.1-1.8,3.8-3,5-3.6c1.2-0.6,2.5-0.9,3.7-0.9
			c1.5,0,2.7,0.5,3.6,1.5c0.9,1,1.4,2.3,1.4,3.9c0,1.5-0.5,2.7-1.4,3.7c-1,1-2.2,1.5-3.7,1.5c-0.8,0-1.5-0.2-1.9-0.6
			c-0.5-0.4-0.8-1.2-1-2.4c-0.1-0.8-0.3-1.3-0.5-1.5c-0.2-0.2-0.5-0.3-0.8-0.3c-0.8,0-1.6,0.2-2.3,0.5c-0.7,0.3-1.7,1.1-3,2.2
			L104.2,77.4z"/>
		<path fill="#FFFFFF" d="M150,47.4c0,1.6-0.3,2.9-1,3.9c-0.7,0.9-1.6,1.4-2.8,1.4c-0.4,0-0.8-0.1-1.2-0.2c-0.4-0.1-0.9-0.4-1.3-0.6
			c0.3-0.8,0.5-1.5,0.6-2.2c0.1-0.7,0.2-1.4,0.2-2c0-1-0.2-1.7-0.5-2.2c-0.3-0.5-0.8-0.8-1.5-0.8c-2.1,0-4.2,2.4-6.2,7.3
			c-2,4.9-3,9.5-3,13.9c0,2.2,0.4,3.8,1.1,4.7c0.7,0.9,2.1,1.4,4.1,1.4c2.3,0,4.3-0.5,6.2-1.5c1.9-1,4.1-2.9,6.5-5.7h2.4
			c-2.8,4.5-5.8,7.9-9.1,10c-3.3,2.2-6.8,3.3-10.7,3.3c-3.7,0-6.5-1-8.4-2.9c-1.9-1.9-2.8-4.8-2.8-8.6c0-2.7,0.4-5.6,1.3-8.7
			c0.8-3.1,2-5.8,3.5-8.2c1.8-2.9,3.9-5.1,6.4-6.5c2.5-1.5,5.2-2.2,8.2-2.2c2.6,0,4.6,0.6,6,1.7C149.4,43.6,150,45.2,150,47.4z"/>
		<path fill="#FFFFFF" d="M150.7,69.2c0-0.6,0-1.3,0.1-2.1c0.1-0.8,0.2-1.6,0.4-2.6l7.7-36.1l10.7-1.4l-8.3,38.9
			c-0.1,0.4-0.2,0.8-0.2,1.2c0,0.4-0.1,0.7-0.1,1.1c0,1,0.2,1.6,0.7,2.1c0.5,0.4,1.2,0.6,2.3,0.6c1.3,0,2.6-0.6,3.8-1.8
			c1.2-1.2,2.1-2.7,2.7-4.6h3c-1.5,4.4-3.6,7.7-6.2,9.9c-2.6,2.3-5.6,3.4-8.9,3.4c-2.4,0-4.3-0.8-5.7-2.3S150.7,72,150.7,69.2z"/>
		<path fill="#FFFFFF" d="M195.8,47.7c0,4-1.6,7.5-4.9,10.4c-3.3,3-7.2,4.5-11.7,4.8c0,0.8-0.1,1.4-0.1,1.8c0,0.4,0,0.8,0,1
			c0,2.2,0.4,3.8,1.1,4.7c0.7,0.9,2.1,1.4,4.1,1.4c2.3,0,4.3-0.5,6.2-1.5c1.9-1,4.1-2.9,6.5-5.7h2.4c-2.8,4.5-5.8,7.9-9.1,10
			c-3.3,2.2-6.8,3.3-10.7,3.3c-3.7,0-6.5-1-8.4-2.9c-1.9-1.9-2.8-4.8-2.8-8.6c0-2.7,0.4-5.6,1.3-8.7c0.9-3.1,2-5.8,3.5-8.2
			c1.8-2.9,3.9-5.1,6.4-6.5c2.5-1.5,5.2-2.2,8.3-2.2c2.6,0,4.6,0.6,5.9,1.7C195.1,43.6,195.8,45.3,195.8,47.7z M188.4,44.6
			c-1.6,0-3.3,1.5-4.9,4.4c-1.7,2.9-2.9,6.4-3.7,10.5c2.8-0.2,5.2-1.5,7.3-3.9s3.1-5.1,3.1-8c0-1-0.1-1.8-0.4-2.2
			C189.5,44.8,189,44.6,188.4,44.6z"/>
	</g>
	<g>
		<path fill="#FFFFFF" d="M50.8,59.4c0,4,0.7,6.9,2.1,8.6c1.4,1.8,3.6,2.6,6.6,2.6c2.7,0,5.3-0.6,7.8-1.9c2.5-1.3,4.5-3,6.2-5.3
			l1.7,0.7c-1.6,4.1-4.3,7.3-8.2,9.8c-3.9,2.4-8,3.6-12.3,3.6c-5.6,0-9.6-1.4-12.1-4.2c-2.5-2.8-3.7-7.3-3.7-13.5
			c0-4,0.5-8.1,1.5-12.5c1-4.3,2.4-8.2,4.2-11.6c2.3-4.4,5.1-7.7,8.4-10c3.3-2.3,7-3.4,11.1-3.4c3.8,0,6.8,0.8,8.9,2.5
			c2.1,1.7,3.1,4,3.1,7.2c0,2.2-0.4,3.8-1.3,4.9c-0.9,1.1-2.1,1.7-3.7,1.7c-0.8,0-1.6-0.2-2.3-0.5c-0.7-0.3-1.3-0.8-1.8-1.4
			c0.9-0.4,1.6-1.3,2.3-2.6c0.7-1.3,1-2.7,1-4c0-1.4-0.4-2.5-1.2-3.2c-0.8-0.8-1.8-1.2-3.2-1.2c-2.1,0-4.2,1.3-6.3,3.9
			c-2.1,2.6-3.9,6.1-5.4,10.6c-1.1,3.1-1.9,6.3-2.4,9.6C51,53.2,50.8,56.4,50.8,59.4z"/>
	</g>
</g>
</svg>
